<svg width="18" height="20" viewBox="0 0 18 20" fill="none" xmlns="http://www.w3.org/2000/svg">
<path d="M15.1921 10.6822L8.091 17.7834C7.31201 18.5624 6.25547 19 5.15381 19C4.05215 19 2.99561 18.5624 2.21662 17.7834C1.43763 17.0044 1 15.9478 1 14.8462C1 13.7445 1.43763 12.688 2.21662 11.909L12.3149 1.81068C12.5722 1.55358 12.8775 1.34966 13.2135 1.21056C13.5496 1.07146 13.9097 0.999914 14.2734 1C14.6371 1.00009 14.9972 1.0718 15.3332 1.21106C15.6691 1.35032 15.9744 1.55438 16.2315 1.81161C16.4886 2.06883 16.6925 2.37418 16.8316 2.71022C16.9707 3.04625 17.0423 3.40639 17.0422 3.77008C17.0421 4.13376 16.9704 4.49387 16.8311 4.82984C16.6919 5.16581 16.4878 5.47106 16.2306 5.72817L6.12487 15.8339C5.86271 16.0852 5.51229 16.2225 5.14915 16.2179C4.786 16.2133 4.4392 16.0662 4.18349 15.8083C3.92777 15.5505 3.78362 15.2024 3.78211 14.8392C3.78059 14.4761 3.92182 14.1268 4.17536 13.8668L11.3845 6.65769M6.13318 15.8246L6.12395 15.8339" stroke="#6A6A6F" stroke-width="1.5" stroke-linecap="round" stroke-linejoin="round"/>
</svg>
