<svg width="73" height="38" viewBox="0 0 73 38" fill="none" xmlns="http://www.w3.org/2000/svg">
<rect x="1" y="1" width="71" height="36" rx="2" fill="#1877F2" stroke="#1771E6" stroke-width="2"/>
<path d="M36.4998 8.91675C31.207 8.91675 26.9165 13.2072 26.9165 18.5001C26.9165 23.7929 31.207 28.0834 36.4998 28.0834C41.7927 28.0834 46.0832 23.7929 46.0832 18.5001C46.0832 13.2072 41.7927 8.91675 36.4998 8.91675Z" fill="url(#paint0_linear_181_1507)"/>
<path d="M37.797 21.0398H40.2772L40.6667 18.5203H37.797V17.1432C37.797 16.0967 38.1391 15.1686 39.1181 15.1686H40.6912V12.9702C40.4147 12.9328 39.8301 12.8513 38.7256 12.8513C36.4189 12.8513 35.0667 14.0694 35.0667 16.8447V18.5208H32.6953V21.0403H35.0662V27.9652C35.5358 28.0351 36.0116 28.0831 36.4999 28.0831C36.9412 28.0831 37.372 28.0428 37.797 27.9853V21.0398Z" fill="#1877F2"/>
<defs>
<linearGradient id="paint0_linear_181_1507" x1="29.7881" y1="11.7884" x2="44.4612" y2="26.4614" gradientUnits="userSpaceOnUse">
<stop stop-color="white"/>
<stop offset="1" stop-color="white"/>
</linearGradient>
</defs>
</svg>
