<svg width="13" height="20" viewBox="0 0 13 20" fill="none" xmlns="http://www.w3.org/2000/svg">
<path d="M6.14286 15.7857C7.50683 15.7857 8.81493 15.2439 9.77941 14.2794C10.7439 13.3149 11.2857 12.0068 11.2857 10.6429V9.35714M6.14286 15.7857C4.77889 15.7857 3.47078 15.2439 2.50631 14.2794C1.54184 13.3149 1 12.0068 1 10.6429V9.35714M6.14286 15.7857V19M2.92857 19H9.35714M6.14286 13.2143C5.46087 13.2143 4.80682 12.9434 4.32458 12.4611C3.84235 11.9789 3.57143 11.3248 3.57143 10.6429V3.57143C3.57143 2.88944 3.84235 2.23539 4.32458 1.75315C4.80682 1.27092 5.46087 1 6.14286 1C6.82484 1 7.4789 1.27092 7.96113 1.75315C8.44337 2.23539 8.71429 2.88944 8.71429 3.57143V10.6429C8.71429 11.3248 8.44337 11.9789 7.96113 12.4611C7.4789 12.9434 6.82484 13.2143 6.14286 13.2143Z" stroke="#6A6A6F" stroke-width="1.5" stroke-linecap="round" stroke-linejoin="round"/>
</svg>
